<?xml version="1.0" encoding="UTF-8"?>
<svg width="82" height="82" viewBox="0 0 82 82" xmlns="http://www.w3.org/2000/svg">
  <path d="M41 82C63.6437 82 82 63.6437 82 41C82 18.3563 63.6437 0 41 0C18.3563 0 0 18.3563 0 41C0 63.6437 18.3563 82 41 82Z" fill="currentColor"/>
  <path d="M41 78C61.4345 78 78 61.4345 78 41C78 20.5655 61.4345 4 41 4C20.5655 4 4 20.5655 4 41C4 61.4345 20.5655 78 41 78Z" fill="white"/>
  <path d="M41 75.5C60.0538 75.5 75.5 60.0538 75.5 41C75.5 21.9462 60.0538 6.5 41 6.5C21.9462 6.5 6.5 21.9462 6.5 41C6.5 60.0538 21.9462 75.5 41 75.5Z" fill="currentColor"/>
  <path d="M41 41L41 6.5C21.9462 6.5 6.5 21.9462 6.5 41H41Z" fill="#0066B1"/>
  <path d="M41 41L75.5 41C75.5 21.9462 60.0538 6.5 41 6.5L41 41Z" fill="#0066B1"/>
  <path d="M41 41L41 75.5C60.0538 75.5 75.5 60.0538 75.5 41H41Z" fill="#0066B1"/>
  <path d="M41 41L6.5 41C6.5 60.0538 21.9462 75.5 41 75.5L41 41Z" fill="#0066B1"/>
</svg>
