<?xml version="1.0" encoding="UTF-8"?>
<svg width="82" height="82" viewBox="0 0 82 82" xmlns="http://www.w3.org/2000/svg">
  <path d="M41 82C63.6437 82 82 63.6437 82 41C82 18.3563 63.6437 0 41 0C18.3563 0 0 18.3563 0 41C0 63.6437 18.3563 82 41 82ZM41 4C60.0538 4 75.5 19.4462 75.5 38.5C75.5 57.5538 60.0538 73 41 73C21.9462 73 6.5 57.5538 6.5 38.5C6.5 19.4462 21.9462 4 41 4Z" fill="currentColor"/>
  <path d="M41 7L41 73M7 40L75 40M41 7L75 40M41 7L7 40M41 73L75 40M41 73L7 40" stroke="currentColor" stroke-width="2"/>
</svg>
