<?xml version="1.0" encoding="UTF-8"?>
<svg width="82" height="82" viewBox="0 0 82 82" xmlns="http://www.w3.org/2000/svg">
  <path d="M41 0C18.3563 0 0 18.3563 0 41C0 63.6437 18.3563 82 41 82C63.6437 82 82 63.6437 82 41C82 18.3563 63.6437 0 41 0ZM41 4C60.0538 4 75.5 19.4462 75.5 38.5C75.5 57.5538 60.0538 73 41 73C21.9462 73 6.5 57.5538 6.5 38.5C6.5 19.4462 21.9462 4 41 4Z" fill="currentColor"/>
  <path d="M41 15L68 42L41 69L14 42L41 15Z" fill="currentColor"/>
  <path d="M41 25L58 42L41 59L24 42L41 25Z" fill="white"/>
</svg>
