<?xml version="1.0" encoding="UTF-8"?>
<svg width="82" height="82" viewBox="0 0 82 82" xmlns="http://www.w3.org/2000/svg">
  <path d="M41 0C18.3563 0 0 18.3563 0 41C0 63.6437 18.3563 82 41 82C63.6437 82 82 63.6437 82 41C82 18.3563 63.6437 0 41 0ZM41 4C60.0538 4 75.5 19.4462 75.5 38.5C75.5 57.5538 60.0538 73 41 73C21.9462 73 6.5 57.5538 6.5 38.5C6.5 19.4462 21.9462 4 41 4Z" fill="currentColor"/>
  <path d="M41 15C26.0883 15 14 27.0883 14 42C14 56.9117 26.0883 69 41 69C55.9117 69 68 56.9117 68 42C68 27.0883 55.9117 15 41 15ZM41 19C53.7025 19 64 29.2975 64 42C64 54.7025 53.7025 65 41 65C28.2975 65 18 54.7025 18 42C18 29.2975 28.2975 19 41 19Z" fill="currentColor"/>
  <path d="M41 30C34.3726 30 29 35.3726 29 42C29 48.6274 34.3726 54 41 54C47.6274 54 53 48.6274 53 42C53 35.3726 47.6274 30 41 30Z" fill="currentColor"/>
</svg>
